<?xml version="1.0" encoding="utf-8"?>
<!-- Generator: Adobe Illustrator 22.0.1, SVG Export Plug-In . SVG Version: 6.00 Build 0)  -->
<svg version="1.0" id="Шар_1" xmlns="http://www.w3.org/2000/svg" xmlns:xlink="http://www.w3.org/1999/xlink" x="0px" y="0px"
	 viewBox="0 0 182 39" style="enable-background:new 0 0 182 39;" xml:space="preserve">
<style type="text/css">
	.st0{fill:#008137;}
</style>
<path class="st0" d="M23.8,22.8h6.4l2.4,8.9l2.5-8.9h6.3v16.4h-4.5l0-12.5l-2.7,12.5h-3.6l-3-12.4l0.2,12.4h-4V22.8z M44.7,22.8h4.5
	V39h-4.5V22.8z M61.1,33.1l4.4,0c-0.3,1.4-0.8,3.9-3,5.3c-0.8,0.5-1.9,0.6-3.2,0.6c-1.6,0-2.9-0.3-3.9-0.7c-1-0.5-1.9-1.4-2.6-2.6
	c-0.7-1.3-1.1-2.9-1.1-4.8c0-2.6,0.6-4.6,1.9-6c1.3-1.4,3.1-2.1,5.5-2.1c1.8,0,3,0.4,4.1,1.2c1.1,0.8,1.8,2.3,2.3,5.2l-4,0
	c0.1-1-0.9-2.8-2.4-2.8c-1,0-1.6,0.4-2.1,1.3c-0.4,0.7-0.6,1.7-0.6,3.1c0,1.8,0.2,3,0.7,3.6c0.5,0.7,1.1,0.9,2,1
	C60.2,35.5,60.8,34.7,61.1,33.1 M67.8,39.1V22.8h8.1c1.5,0,2.6,0.1,3.4,0.4c0.8,0.3,1.4,0.8,1.9,1.5c0.5,0.7,0.7,1.6,0.7,2.6
	c0,0.9-0.3,1.6-0.6,2.3c-0.3,1-1.1,2-2.3,2.2c0.9,2.1,1.9,4.2,2.9,7.3h-5.5c-0.1-0.4-2.3-6.6-2.3-6.6h-1.5v6.6H67.8z M72.7,29.4h2
	c0.2,0,0.6-0.1,1.3-0.2c0.3-0.1,0.6-0.2,0.8-0.5c0.2-0.3,0.3-0.6,0.3-0.9c0-0.5-0.2-0.9-0.5-1.2c-0.3-0.3-0.9-0.4-1.8-0.4h-2.1V29.4
	z M83.7,31c0-2.6,0.7-4.6,2-6c1.3-1.4,3.2-2.2,5.6-2.2c2.5,0,4.4,0.7,5.7,2.1c1.3,1.4,2,3.4,2,5.9c0,1.8-0.3,3.4-0.9,4.5
	c-0.6,1.2-1.4,2.1-2.5,2.8c-1.1,0.7-2.5,1-4.1,1c-1.7,0-3.1-0.3-4.1-0.9c-1.1-0.6-2-1.5-2.7-2.7C84.1,34.3,83.7,32.8,83.7,31
	 M88.7,31c0,1.6-0.1,2.7,0.4,3.4c0.6,0.7,1.3,1,2.3,1c1,0,1.7-0.3,2.3-1c0.5-0.7,0.4-1.9,0.4-3.7c0-1.5,0.1-2.6-0.5-3.3
	c-0.6-0.7-1.3-1-2.3-1c-0.9,0-1.7,0.3-2.2,1C88.6,28.2,88.7,29.4,88.7,31 M101.4,22.8h5v16.4h-5V22.8z M109.4,22.8h4.2l5.5,9v-9h4.3
	v16.4h-4.3l-5.5-9v9h-4.2V22.8z M125,22.8h4.7l3,11l3.2-11h4.4l-5.2,16.4H130L125,22.8z M141.8,22.8h12.1v3.5h-7.4v2.6h6.2l0,3.6
	h-6.2l0,2.9h7.7v3.7h-12.3V22.8z M154.6,34l4.2-0.1c0.2,1.4,1.8,2.1,3.1,2.1c0.7,0,1-0.2,1.4-0.5c0.4-0.3,0.6-0.7,0.6-1.1
	c0-1.5-1.7-1.4-2.8-1.7c-2.1-0.5-3.6-1.1-4.6-1.9c-0.9-0.8-1.4-2.1-1.4-3.4c0-0.8,0.2-1.6,0.7-2.3c0.5-0.7,1.2-1.3,2.1-1.7
	c0.9-0.4,2.2-0.6,3.9-0.6c2,0,3.5,0.4,4.6,1.1c1.1,0.8,1.7,1.9,1.9,3.6l-4.6,0c-0.2-1.2-0.6-1.6-2.1-1.6c-0.6,0-1,0.1-1.3,0.4
	c-0.3,0.2-0.4,0.5-0.4,0.9c0,0.9,1,1.1,1.7,1.3c2.1,0.5,3.6,0.9,4.6,1.4c0.9,0.5,1.6,1.1,2,1.8c0.4,0.7,0.6,1.2,0.6,2.1
	c0,1-0.3,1.9-0.8,2.8c-0.6,0.9-1.3,1.5-2.3,1.9c-1,0.4-2.3,0.7-3.8,0.7c-2.7,0-4.5-0.5-5.6-1.6C155.3,36.5,154.8,35.6,154.6,34
	 M170,22.8h11.3v4h-3.7v12.3h-4.5V26.8H170V22.8z"/>
<path class="st0" d="M103.2,11.6C57.5-16.2-27.1,10.7,8.6,40.9C-24,9.8,65.4-8,98.5,14.7C98.5,14.7,98.7,12.2,103.2,11.6"/>
<path class="st0" d="M104,20.8c1.6,0,2.8-1.3,2.8-2.8c0-1.6-1.3-2.8-2.8-2.8c-1.6,0-2.8,1.3-2.8,2.8C101.2,19.6,102.5,20.8,104,20.8
	"/>
</svg>
